<svg id="Capa_1" data-name="Capa 1" xmlns="http://www.w3.org/2000/svg" viewBox="0 0 471.9 368.26" width="300" fill="#c5a982">
    <path class="cls-1"
        d="M271.85,435.55a36.12,36.12,0,0,0-1.41,9.85c0,2.51-.59,4.82-3.27,5.53-2.84.76-4.81-.79-6.27-3.16-1.86-3-2.7-6.52-4.69-10.38-0.37,2.77-.66,4.85-0.93,6.93-0.33,2.55-1,4.8-3.1,6.66s-3,1.17-4.28-.66c-1.78-2.6-2.17-5.64-2.91-8.56-0.66-2.61-1.2-5.26-2-8.69-1.35,4.36-2.36,7.92-3.57,11.41-0.81,2.34-2,4.78-4.92,4.64s-4-2.51-4.71-4.94a49,49,0,0,1-1.3-6.53c-0.46-3.37-.74-3.56-3.53-1.5-3.11,2.3-6.21,4.48-10.25,4.92-2.18.24-3.08-.23-3.29-2.59-0.27-3,1-5.56,2-8.16q9.35-23.89,18.87-47.72a11.9,11.9,0,0,0-.24-10.26c-2.41-4.8-4.87-9.56-7.22-14.38-0.71-1.46-1.6-2.2-3.28-2-1.41.15-2.91-.2-4.24,0.15-3.53.93-5-2.42-7.54-3.43a1.45,1.45,0,0,1-.52-1.64c0.2-1,1-.88,1.7-0.89,2.53,0,5.06,0,7.59,0,1.27,0,2.36,0,1.57-1.81-3.87-8.78-6.21-18.2-10.93-26.64C204.94,314,198,310,189.74,308.05c-6.19-1.44-12.51-.61-18.77-0.58-14.29.06-28.59,0-42.85,0.7-30.59,1.45-61.19,1.09-91.78.88-5.05,0-10.1.16-15.15,0.1-6.21-.07-8-2-6.79-7.93,6.18-31,14.68-61.22,29.78-89.22C51.33,198.73,60,186.46,68.8,174.24c5.25-7.31,11.47-13.83,17.61-20.29,14.09-14.82,29.65-28,47.72-37.93a220,220,0,0,1,30-13.11c14.06-5.18,28.2-10.13,42.57-14.37A116.11,116.11,0,0,1,247.5,84c12,0.79,24,2.14,35.94,3.3a172.28,172.28,0,0,1,52.25,14c19.28,8.39,38,17.77,54.77,30.61,15,11.52,28,25.12,40,39.76a215.14,215.14,0,0,1,23.46,35,275.57,275.57,0,0,1,13.67,31.13c3.29,8.57,6.58,17.15,9.51,25.85,4,11.9,6.13,24.28,8.68,36.54a6.93,6.93,0,0,1,.07.91c0.42,5.84,0,6.33-5.8,6.32-25.34,0-50.7.29-76-.25-27.36-.58-54.72,0-82.08-0.54-11.39-.21-19.89,5-27.49,13.13-9.22,9.88-14.21,21.7-18.41,34.16a115.84,115.84,0,0,1-6.13,13.88,14.8,14.8,0,0,0-1.09,9.48A336.56,336.56,0,0,0,286,437.74a11.81,11.81,0,0,1,1,5c-0.18,2.85-2,4-4.56,2.69-3.18-1.57-5.19-4.48-7.67-6.85C273.91,437.77,273.11,436.87,271.85,435.55ZM243.7,333l-0.19-.29a0.3,0.3,0,0,0,0,.16,0.84,0.84,0,0,0,.2.12c2.33,4.6,5.5,8.67,8.28,13,0.39,0.61.81,1.25,1.67,0.83a1.65,1.65,0,0,0,.8-1.79C254.24,340,248.66,333.73,243.7,333Zm2.85-95.31c0.19,0.19.38,0.42,0.6,0.07a1.28,1.28,0,0,0-.28-0.39c-1.19-1.62-2.32-3.29-3.59-4.86-0.85-1.05-.46-1.54.54-2.07,2.5-1.34,5.1-.77,7.42,2.2a52.16,52.16,0,0,0,17.1,13.84,86.35,86.35,0,0,1,13.47,8.76c3.41,2.73,3.3,5.1-.2,7.45-0.92.62-1.94,1.1-2.87,1.7-2.61,1.68-5.56,2.82-8.09,4.95,1.2,0.89,2.27,1.65,3.3,2.45,8,6.23,12,1.67,14-5.85a10.62,10.62,0,0,0,.15-2.12c0.5-8.27-1.84-15.82-5.9-22.89-7.55-13.15-17.56-22.2-34.11-20.46-8,.84-15.59,2.24-21.62,8.23-5.25,5.2-8,11.57-9.59,18.61-1.43,6.27-2.94,12.53-2.93,19,0,4.56,3.89,8,7,6.14,3.65-2.16,6.43-5,7.13-9.61,0.47-3.07.09-6,0-9.06-0.1-2.23-.29-3.57-3.06-2.54-1.61.6-3.62,0.18-4.1-1.5s1.19-2.54,2.74-3.07c2.38-.81,4.74-1.71,7.69-2.78-1.67-.78-2.72-1.16-3.65-1.73s-2.63-.59-2.52-1.81,1.58-1.94,2.88-2.37a5.25,5.25,0,0,1,3-.21c1.77,0.41,3.56.69,5.35,1,0.22,0.12.45,0.26,0.68,0.36a0.74,0.74,0,0,0,.18-0.19l-0.71-.35a23.45,23.45,0,0,0-2.56-2.52c-1.89-1.38-1.15-2.28.45-3a6.34,6.34,0,0,1,6.55.68C242.81,235.06,244.17,237.12,246.55,237.68ZM32,280.63c0,1.12,0,2.23,0,3.35,0.4,8.66,4.25,12.37,13,12.53,1.72,0,3.45.09,5.17,0,13.19-1,22.81-4.41,26.46-21.19,3-13.63,8.59-26.36,15.79-38.32a223.49,223.49,0,0,1,41.62-50.8c12.71-11.51,25.84-22.5,40.58-31.33,20.78-12.46,43.25-20.34,67.43-22.38,19.15-1.61,38,1.3,56.35,6.81,16,4.8,30.13,13.39,43.86,22.61,17.19,11.54,31.67,25.77,42.65,43.48,6.82,11,13.81,21.92,20.65,32.93,7.88,12.69,15.17,25.69,22,38.94,2.09,4,4.14,8.1,6.6,11.9,2.75,4.24,7.23,7.28,12.47,5.29a31.69,31.69,0,0,0,14.14-10.64c7.13-9.35,5.4-19.42,2-29.4-3-8.62-7.15-16.74-10.82-25.07-3.06-6.95-5.56-14.14-9.34-20.76-10.13-17.72-23.41-33-37.15-47.93s-30.18-26-47.21-36.52c-10.69-6.6-21.36-13.25-33.08-17.94a165.59,165.59,0,0,0-42-10.37A232.5,232.5,0,0,0,255,94.14c-14.9,0-29.61,2.29-44.21,5.22-18.91,3.8-37.51,8.62-54.53,18-18.21,10-36,20.89-51.37,35C91.27,164.81,77,176.8,67.81,193.4c-4.92,8.84-11.51,16.69-16.2,25.69-6.11,11.71-10.27,24.23-14.5,36.68C34.38,263.77,32.25,272,32,280.63Zm339.05,17.76c1.38,0,3.31.05,5.23,0a5.15,5.15,0,0,0,5-3.72,14.81,14.81,0,0,0-.29-11.22c-3.89-9-8.16-17.86-11.77-27-7.26-18.34-18.85-33.7-32.43-47.64-10.55-10.82-23.49-18.54-36.28-26.36-12-7.32-24.72-12.26-38.94-13.32a109.81,109.81,0,0,0-42.55,4.69c-33.29,10.81-58.5,32.32-78.62,60.34-6.51,9.07-9.86,19.7-14,29.91s-7.74,20.35-11.67,30.5c-1.19,3.08-1,3.76,2.33,3.69,14.7-.29,29.37.73,44.06,0.77,6,0,12.06.9,18.13-.14,7.15-1.23,12.57-4.61,15.83-11.25,5-10.16,6.25-21.2,7.84-32.17,1.08-7.41,2.11-14.86,4.76-21.88,3.94-10.46,12.29-16.66,22.09-20.94,11.75-5.12,24-5.28,36.25-2s21.07,10.79,25.9,22.76c2.71,6.72,4.1,13.76,5.21,20.84,1.24,7.88,1.88,15.85,3.13,23.73,1.57,9.9,7.34,15.65,17.2,17.46a71.09,71.09,0,0,0,9.34,1C341.41,297.1,356,297.72,371.08,298.39Zm-4-83.46c-1.42,0-2.85.09-4.26,0-3.29-.26-4.81-2.23-4.21-5.48,0.86-4.67,1.63-9.37,2.76-14a5.19,5.19,0,0,0-1.65-5.43q-5.19-5.13-10.35-10.29c-3.79-3.77-4.44-3.84-9.22-1.41-3.88,2-7.48,4.51-11.67,5.82-3.58,1.12-6.1-.07-6.73-3.48a53.69,53.69,0,0,1-1.2-14.17c0.4-4.9-1-7.34-5.42-9.34-3.42-1.53-6.89-3-10.2-4.7-1.82-1-2.9-.52-4.2.82a63.65,63.65,0,0,1-7,6.7c-5,3.8-9.33,2.33-11-3.76-0.86-3.22-1.69-6.46-2.55-9.68-0.37-1.39-.77-2.91-2.41-3.21-3.57-.66-7.09-1.61-10.8-1.43a4.42,4.42,0,0,0-4.13,2.51,56.36,56.36,0,0,1-5.55,8.7c-4.63,5.81-9.07,5.29-11.85-1.46-1.9-4.61-4.8-8.29-10.16-8.26a33.81,33.81,0,0,0-12,2.8,5.45,5.45,0,0,0-3.43,4.34,43.46,43.46,0,0,1-1.28,5.3c-2.55,8.17-6.36,9.28-12.87,3.91-3.76-3.09-7.85-5.23-12.81-2.82-3.46,1.68-6.83,3.56-10.28,5.27s-4.87,4.37-5.22,8c-0.3,3.12-.64,6.24-1.19,9.32-1,5.47-4.95,7.33-9.9,4.66a81,81,0,0,1-7-4.23c-1.37-.93-2.23-0.72-3.41.34-5.29,4.71-10.64,9.37-16.07,13.93a2.59,2.59,0,0,0-.78,3.65c1.2,2.57,2.32,5.18,3.3,7.84,2.25,6.11-1,10.16-7.38,9.27-2.4-.33-4.74-1-7.11-1.53-3.27-.68-6.11-0.32-8.38,2.62-3.15,4.08-6.58,8-9.87,11.93a4.07,4.07,0,0,0,0,5.77,64.46,64.46,0,0,1,6.62,10.17c3.22,5.58,1.19,9.43-5.21,10.07-3.92.39-7.84,0.79-11.75,1.32-2.49.34-4.7,1.21-5.61,4-2.22,6.72-4.63,13.39-6.36,20.27-1.65,6.57,1.42,12,7.84,14,3.14,1,6.06-.25,7.94-3.41,1.64-2.75.69-5-1.47-7A42.33,42.33,0,0,1,95,275.13c-2.84-4.33-1.37-7.92,3.68-9.07,3.34-.76,6.74-1.36,10.14-1.8,4.66-.6,8-2.63,9.3-7.4a18.63,18.63,0,0,1,2.07-4.37c4.05-6.8,4-8.6-.86-15a23,23,0,0,1-3.87-6.84c-1.25-4,.7-6.94,4.86-7.17a44.22,44.22,0,0,1,10.61.39c4.09,0.76,7.41,0,10-3.75,3.19-4.64,7.43-8.57,8.17-14.63,0.38-3.12-.72-6-1-9-0.56-7,3.43-7.9,8.79-6.89a12.41,12.41,0,0,1,2.26.89c5.84,2.37,10.88,1.14,15.22-3.33,1.13-1.16,2.2-2.45,3.82-2.93,5.14-1.53,7.34-5.41,8.22-10.29,0.34-1.88.5-3.81,0.66-5.72,0.47-5.81,4.65-8.14,9.77-5.32,1.77,1,3.34,2.31,5.1,3.29s3.57,2.33,5.65,1.82a99.08,99.08,0,0,0,11-3.33c2.94-1.1,5.1-3.44,4.91-6.67-0.26-4.22,1.69-6.78,4.84-9.09s4.37-2.52,7.4.07a39.9,39.9,0,0,1,6.37,7.31c2.83,4,12.47,5.53,16.29,2.71a3.35,3.35,0,0,0,1.1-1.42c1.76-4.62,6.12-6.58,9.58-9.47,0.82-.68,1.54-0.77,2.23.31,1.67,2.62,3.86,4.88,4.2,8.27,0.28,2.75,1.23,5.62,3.75,7a44.35,44.35,0,0,0,14.08,5c3.54,0.61,5.9-2.19,8.37-4.27,2.11-1.78,4.51-3,7.23-2s4,3.79,4.05,6.63c0.19,9.83,6,15.72,13.83,20.25a9.48,9.48,0,0,0,10.36-.3,26,26,0,0,1,6.37-2.8c6.73-2,10.53,1.39,9.27,8.31-1.05,5.76-2.44,11.51-.86,17.42,2,7.61,8.9,12.17,16.47,10.86a15.6,15.6,0,0,1,9.13,1.38c3.46,1.54,4.25,4.39,2.39,7.75a30.41,30.41,0,0,1-2.28,3.22c-4.52,6.09-4.5,12,0,18.16,1.07,1.46,2.05,3,3,4.55,2.18,3.58,5.16,5.66,9.53,5.21a28,28,0,0,1,10.18,1.12c3.94,1.06,5.49,4.4,3.6,7.94-1.42,2.66-3.12,5.17-4.62,7.79-1.13,2-2.14,4-3.21,6.06,2.27,1,4.46,2.42,6.84,2.93,2,0.43,4.53,1.22,6.25-.75a11.48,11.48,0,0,0,2.76-9A135.64,135.64,0,0,0,407.69,260a7.13,7.13,0,0,0-6.33-5.61c-4.67-.77-9.37-1.41-14-2.43-6.29-1.4-7.69-4.46-4.75-10.12,1.73-3.32,3.62-6.57,5.62-9.73a2.92,2.92,0,0,0-.09-3.81c-2.52-3.43-4.94-6.92-7.14-10.57a6.87,6.87,0,0,0-7.61-3.26A33.64,33.64,0,0,1,367,214.92ZM260.2,258c0-7.91-4.86-13.18-12-13.07-6.56.1-13.08,6.83-13.1,13.54,0,6.1,6.29,11.76,13.11,11.78A12,12,0,0,0,260.2,258Zm-18.57,29.49c-5.5,8.92-9.39,18.71-14.83,27.67-3.18,5.24-2,10.26.71,15.24,0.8,1.48,1.48,1.51,2.23,0,1.32-2.61,2.72-5.2,3.94-7.86C238.79,311.44,239.93,299.42,241.63,287.45Zm29.13,41.37a52.25,52.25,0,0,0-.27-13.67c-1.53-10-5.26-19-12-26.71-0.54-.62-1.1-1.83-2.07-1.31s-0.45,1.66-.35,2.52c0.3,2.7.6,5.41,1.06,8.09C259.09,309.22,264.34,319.26,270.76,328.83Zm-36.2,22.68c3.27,22.44,18.15,37.78,31.34,54.12-0.67-6-2.16-11.53-6.24-16.21-9.05-10.4-17.28-21.37-22.8-34.14C236.33,354,236,352.61,234.56,351.5Zm24.21,25.91a23.68,23.68,0,0,0-3.27-15.68c-4.52-7.54-10.95-13.58-16.45-20.38A78.3,78.3,0,0,0,258.77,377.42Zm-14,16.31a16.75,16.75,0,0,0-4.24-7.37c-0.86-.91-1.66-0.05-2,0.92q-3.12,8.87-6.2,17.76c-0.23.66-.51,1.45,0.32,1.88s1.11-.3,1.5-0.71q4.82-5.06,9.6-10.15A3,3,0,0,0,244.77,393.72Zm20.35-36.38c6-7.42,4.14-18.92-4.64-27Zm-39-55.72c3.2-6.16,6.15-11.78,9-17.44,0.42-.83,1.55-1.86.73-2.64s-2.11-.41-3.17.07a11.3,11.3,0,0,0-1.31.76C226.5,285.48,224.1,293.68,226.14,301.62Zm49.27-6.46c-0.56-2.47-1.07-5.45-1.92-8.33a14.72,14.72,0,0,0-5.7-8c-0.69-.49-1.43-1-2.2-0.42s-0.11,1.3.15,1.87q3.66,8,7.41,15.88c0.31,0.66.51,1.75,1.63,1.34C275.64,297.23,275.24,296.33,275.41,295.17Zm-22.8,34.34c0.22-10.45-.84-14.92-7-17C245.71,319,248,324.29,252.61,329.51Zm15.35-75c0.73,2.95-.32,6.22,1.57,8.11,0.87,0.87,3.42-1.74,5.25-2.7a3.16,3.16,0,0,0,.5-0.34c0.59-.48.71-1,0-1.39C272.94,257.09,271,255.26,268,254.53Z"
        transform="translate(-14.05 -83.78)" />
    <path class="cls-1"
        d="M345.89,334.6a16.49,16.49,0,0,0,7.66.38c2.3-.45,4.52-0.15,5.46,2.56,0.88,2.52,0,4-2.61,4.68s-5.43.19-8.33,0.56c0.54,2.51,2.6,3.67,4,5.26,2.07,2.28,3.15,4.62,1.61,7.69-1,2-2,2.56-3.84.91-2.49-2.21-5.13-4.25-7.85-6.48-1,1.09-.92,2.31-0.93,3.46a11.27,11.27,0,0,1-.92,4.74c-1,2.19-3.18,2.62-5.15,2.4s-1.07-2.28-1.12-3.49c-0.14-3.43,0-6.87,0-10.69-2.6,1.53-4.12,3.68-6,5.43a12.58,12.58,0,0,1-2.75,2.36c-1.41.72-2.53,0.17-3.67-.58s-0.74-1.91-.45-3c0.79-3,3.25-4.77,5.1-7.07-1.05-.77-2.09-0.47-3-0.41-3.07.18-5.14-1.23-6.81-3.7-0.74-1.1-.41-1.47.42-2.16,1.75-1.45,3.83-1.76,6-1.93a27.77,27.77,0,0,1,3.34,0,1.94,1.94,0,0,0,2.07-1.43c0.37-1.08-.59-1.35-1.21-1.8-1.88-1.37-4-2.46-5.53-4.24-1.35-1.55-2.29-3.06-.53-5s3.45-1.76,5.23-.18c2,1.8,4,3.64,6.18,5.57,1.07-2.31.89-4.61,0.89-6.88s0.65-3.87,3-4.29,3.05,1.43,3.76,3.16c0.79,1.94.67,4,.71,6s0.9,2.06,2.22.95c1.46-1.24,2.86-2.57,4.32-3.81a3.9,3.9,0,0,1,4.54-.49c2.45,1.19,2.67,2.33.86,4.35C350.37,329.69,348.27,332,345.89,334.6Z"
        transform="translate(-14.05 -83.78)" />
    <path class="cls-1"
        d="M172.7,333.52c2.09,0.25,3.9.42,5.69,0.71a9.41,9.41,0,0,1,2.9.81c2,1.06,2.27,3.07,2,5s-2,1.27-3.22,1.31c-2.94.08-5.88,0-8.82,0-0.61,0-1.37,0-1.47.72a2,2,0,0,0,.7,1.24c0.63,0.65,1.36,1.21,2,1.82s1.37,1.2,2,1.86c1.9,2,2.6,4.88,1.11,6.62s-3.88-.3-5.63-1.36a19.82,19.82,0,0,1-2.9-2.66,1.29,1.29,0,0,0-1.27-.62,1.17,1.17,0,0,0-.53,1.31c0,1.93,0,3.85,0,5.78s-1.11,3-2.84,3.44c-1.9.54-2.48-1-3.16-2.16a11,11,0,0,1-1.28-5c-0.08-1.61,0-3.22,0-5.63-2.06,2-3.59,3.5-5.17,5-2.41,2.23-6.61,3.43-7.28,2-1.24-2.7-.06-5,1.92-7.09,1.24-1.28,2.29-2.73,3.82-4.59-2.84,0-5.13.05-7.41,0-2.07-.06-3.84-0.68-4.18-3.1s1.41-3,3.19-3.7c2.38-.95,5.08.21,7.55-1.27-1.57-2.56-3-5.08-4.63-7.54s0.14-3.76,1.6-5.15c0.9-.86,1.46.12,2,0.62,1.78,1.66,3.5,3.38,5.27,5,0.57,0.54,1.1,1.37,2,1.05s1-1.42,1.09-2.3a20.86,20.86,0,0,0-.26-4.84c-0.49-2.77.76-4.51,3.23-4.89,2.64-.41,3.9.61,4.28,3.79,0.21,1.7.06,3.44,0.12,5.16,0,0.66-.26,1.53.62,1.84a1.87,1.87,0,0,0,1.85-.8c1.41-1.31,2.71-2.75,4.19-4s2.94-2.13,5-1.42c3.73,1.29,4.11,2.45,1.66,5.44-1.73,2.11-3.47,4.22-5.19,6.34A8.6,8.6,0,0,0,172.7,333.52Z"
        transform="translate(-14.05 -83.78)" />
    <path class="cls-1"
        d="M108.37,330.2c2.76-2.45,5.18-4.52,7.51-6.69,1-.89,1.74-1.74,3-0.55s2.32,2.2,1.3,3.9c-1.6,2.68-3.33,5.29-5.14,8.16,1.47,0.64,3,.27,4.4.4a12,12,0,0,1,3,.36c1.35,0.5,3.33.77,3.17,2.7a4.47,4.47,0,0,1-3.38,4.22,18.44,18.44,0,0,1-5.12.55c-0.56,0-1.36-.2-1.5.58a2.05,2.05,0,0,0,.63,1.28c1.29,1.56,2.65,3.06,3.92,4.63s2.09,3.32.36,5.15-3.28,1.24-5.07-.07c-2.54-1.85-4.45-4.37-7.2-6.59-0.29,2.68-.54,5-0.8,7.38-0.24,2.14-1.25,4.52-3.29,4.32a4.47,4.47,0,0,1-4-4.65c0-1.79,0-3.58,0-5.88-2.13,1.82-3.78,3.41-5.63,4.73-1.26.9-3.23,2.19-4.31,0.81a4.36,4.36,0,0,1-.17-5.63c1.87-2.2,3.79-4.37,6.24-7.18-3.87,0-7.06.12-10.23-.06-1.23-.07-3.41,1.16-3.48-1.49-0.07-2.2.38-4.3,2.94-5.06a31.28,31.28,0,0,1,7.5-.78c0.55-1.25-.54-1.68-1-2.32-1.45-1.82-3-3.55-4.47-5.37C85,324,85.73,322,89.61,320.55c1.2-.44,1.67.39,2.32,0.93,2.34,1.93,4.66,3.89,7,5.85,1.25,1.06,1.74.63,1.76-.86a43.06,43.06,0,0,1,.18-5.16c0.28-2,1.28-4,3.45-4,1.94-.06,3.13,1.63,3.79,3.44a7.54,7.54,0,0,1,.26,4.19A14.26,14.26,0,0,0,108.37,330.2Z"
        transform="translate(-14.05 -83.78)" />
    <path class="cls-1"
        d="M44.75,348.29c-2.67,2.24-4.65,3.94-6.66,5.58-1.33,1.09-2.79,2.5-4.57,1.28s-1.07-3.14-.67-4.76c0.66-2.63,2.68-4.2,4.84-5.61,0.71-.47,1.83-0.81,1.46-2-0.3-1-1.31-.78-2.08-0.85-1.81-.17-3.64-0.21-5.43-0.46a5,5,0,0,1-4.21-3c-0.47-1.24,2.72-4.11,4.5-4.24,1-.08,2,0,3,0h3.12c-1.7-2.06-3.13-3.7-4.45-5.43-1-1.33-1.73-3.14-1.09-4.5,0.45-1,2.43-.4,3.73-0.47,2.41-.14,4.28,1.17,6,2.54,2,1.59,2.71.85,2.82-1.32,0.09-1.72,0-3.45.25-5.15,0.15-1.2-.88-3.12,1.47-3.31,2.13-.16,4.17.2,5,2.49a15.36,15.36,0,0,1,.84,5.68c0,0.75-.3,1.79.7,2.1,0.74,0.23,1.24-.54,1.76-1A44.41,44.41,0,0,1,59.52,322c1.59-1.08,3.87-2.16,5.26-.61s1.26,4.1,0,6a60.52,60.52,0,0,1-4.29,5.1c-0.5.59-.94,1.23-1.78,2.32,3.12,0,5.71,0,8.29,0,2.17,0,4,.73,3.79,3.26-0.17,2.26-1.08,4.15-3.93,4-2-.08-4.05-0.06-6.08,0-0.88,0-1.95-.21-2.36.89s0.54,1.43,1.07,2q2.18,2.33,4.43,4.59c1.06,1.07,1.48,2.19.44,3.48s-2.24,2.21-3.9,1.16c-2.63-1.66-5.2-3.42-7.84-5.17-0.9,1-.44,2.13-0.52,3.18a15.21,15.21,0,0,1-.46,4.21c-0.52,1.39-1,3.47-2.62,3.14-1.93-.39-4.2-1.33-4.26-4.05C44.71,353.4,44.75,351.29,44.75,348.29Z"
        transform="translate(-14.05 -83.78)" />
    <path class="cls-1"
        d="M381.78,342.8c-2.51-.29-4.42-0.45-6.32-0.75a7.15,7.15,0,0,1-2.58-.81,4.45,4.45,0,0,1-1.87-4.8c0.3-2,2.14-1,3.29-1.06,2.73-.13,5.47-0.05,8.21,0,1,0,1.9-.08,2.21-1.18s-0.59-1.38-1.22-1.87c-2.75-2.17-6.06-3.89-5.37-8.38,0.26-1.71.76-1.95,2.32-1.59,3.13,0.71,5.27,2.86,7.44,4.93,1.09-.64.57-1.53,0.64-2.25a26.22,26.22,0,0,1,.2-3.62c0.54-2.28,2.38-4,4.38-4,1.7,0,2.53,2.29,2.71,4.23,0.22,2.39.49,4.78,0.75,7.24,1.26-.2,1.75-1.32,2.56-2s1.58-1.57,2.4-2.32c1.84-1.68,6.78-2.75,7.16-1.5a6.8,6.8,0,0,1-1.82,6.65c-1.19,1.34-2.33,2.72-3.91,4.57,2.31,0,4.08,0,5.84,0a4.64,4.64,0,0,1,4.45,2.57c1.56,2.71,1.08,3.92-2.2,4.69a25.24,25.24,0,0,1-3.9.55c-1.18.09-2.38,0-3.84,0,0.6,1.84,1.79,2.79,2.73,3.92a38.59,38.59,0,0,1,2.61,3.35c1.41,2.12,0,3.68-1.33,5.06s-2.43-.21-3.28-0.93c-2.37-2-4.57-4.22-7-6.52-0.85,1.43-.34,2.57-0.24,3.72,0.27,3.18.17,6.22-2.54,8.64-1.36,1.21-2.06.91-3.22-.17-2.07-1.93-1.83-4.34-1.89-6.77,0-.93.61-2.29-0.62-2.68-1-.31-1.81.7-2.54,1.39-1.18,1.11-2.26,2.35-3.54,3.33-1.44,1.11-3,2.06-5,1.35-3.58-1.24-3.93-2.16-1.65-5.14C377.66,348.08,379.58,345.63,381.78,342.8Z"
        transform="translate(-14.05 -83.78)" />
    <path class="cls-1"
        d="M458.69,336c3.64,0,6.46-.08,9.28,0,1.34,0.06,3.24-.85,3.68,1.5a4.46,4.46,0,0,1-3.37,5.06c-1.17.3-2.39,0.42-3.58,0.64s-2.41-.22-3.9.57c2.11,2.54,4.14,5,6.16,7.43,1,1.19,2,2.32.57,4s-2.73,1.71-4.58.85c-2.77-1.3-4.94-3.42-7.45-5.07-0.48-.32-0.89-1-1.56-0.63s-0.39,1.08-.4,1.65c0,1.32,0,2.63,0,4-0.06,2.31-.93,4.64-3.25,4.85s-4-1.89-4.28-4.3S446,351.31,446,348c-2.83,2.47-5.07,4.31-7.17,6.3-1.27,1.21-2.37,1.81-3.9.45s-1.95-2.64-.8-4.25c1.46-2.06,3.06-4,4.57-6a13.11,13.11,0,0,0,.86-1.77,45.72,45.72,0,0,1-6.08-.06c-2-.29-4.67-1-4.62-3.14s2.07-4.12,4.7-4.43a15.62,15.62,0,0,1,3.3.2,1.61,1.61,0,0,0,1.86-.65c0.46-.85-0.22-1.33-0.72-1.79a11.34,11.34,0,0,1-4.15-7.49c-0.18-1.81.36-2,1.87-2.08,3.61-.27,5.16,2.15,6.8,4.68,0.62,1,.62,2.89,2.56,2.35s1.87-2.12,1.81-3.7c0-1.32,0-2.63,0-4,0-2,.43-4,2.65-4.58,1.73-.43,4.44,2.34,4.61,4.51,0.14,1.81,0,3.63,0,5.47,1.27,0.29,1.63-.77,2.29-1.26a34.39,34.39,0,0,1,2.81-2.3c1.51-.89,3.76-2.49,4.82-1.15a5.11,5.11,0,0,1-.23,6.22Z"
        transform="translate(-14.05 -83.78)" />
    <path class="cls-2"
        d="M236.48,238.61L237.2,239a0.74,0.74,0,0,1-.18.19c-0.23-.11-0.45-0.24-0.68-0.36Z"
        transform="translate(-14.05 -83.78)" />
    <path class="cls-2" d="M243.72,333a0.84,0.84,0,0,1-.2-0.12,0.3,0.3,0,0,1,0-.16L243.7,333Z"
        transform="translate(-14.05 -83.78)" />
    <path class="cls-2" d="M246.87,237.36a1.28,1.28,0,0,1,.28.39c-0.22.35-.42,0.11-0.61-0.07Z"
        transform="translate(-14.05 -83.78)" />
    <path class="cls-1"
        d="M79.6,239.57c-7.87-.71-14.25-4.95-20.75-8.83-1.74-1-1.4-2.91-.24-4.25,1.78-2.06,3.84-3.52,6.87-2.12,2.66,1.22,5.32,2.45,8,3.58,4.57,1.93,6.32,5.68,7.4,10C81.29,239.63,81.2,239.74,79.6,239.57Z"
        transform="translate(-14.05 -83.78)" />
    <path class="cls-1"
        d="M72.77,255c0,3.09-1.19,4-3.85,3.32-5.07-1.35-10.08-2.92-15.25-3.93A5.86,5.86,0,0,1,49.11,247c0.44-1.57,1.06-3.39,3.57-2.48q8.13,2.93,16.33,5.64A5.11,5.11,0,0,1,72.77,255Z"
        transform="translate(-14.05 -83.78)" />
    <path class="cls-1"
        d="M184,117.91a13.3,13.3,0,0,1,1-4.48c0.39-1.21,1-2.29,2.38-2.37a3.43,3.43,0,0,1,3.46,1.93c2.88,5.36,4.76,11.12,6.75,16.82,0.73,2.09-1.47,3.56-2.93,4.83-1.21,1-2.43,0-3.13-.87A35.77,35.77,0,0,1,184,117.91Z"
        transform="translate(-14.05 -83.78)" />
    <path class="cls-1"
        d="M124.62,173.54a8.17,8.17,0,0,1-4.37-2c-3.37-3.11-6-6.87-8.94-10.31-1.35-1.56.12-2.46,0.79-3.37,1-1.44,2.33-3.38,4.42-2.2,5.36,3,10.06,6.88,12.57,12.7C130.37,171.38,128.25,173.78,124.62,173.54Z"
        transform="translate(-14.05 -83.78)" />
    <path class="cls-1"
        d="M370.14,145.94a6.22,6.22,0,0,1-.78,4.3,55.26,55.26,0,0,1-6.61,8.64c-1.68,1.81-3.79,2.62-6,1.39s-2.42-3.38-1.59-5.8a27.73,27.73,0,0,1,7.23-11c1.64-1.59,3.31-2.65,5.66-1.6S369.86,145,370.14,145.94Z"
        transform="translate(-14.05 -83.78)" />
    <path class="cls-1"
        d="M103.12,200.94c-0.44,1.89-1.6,3.16-3.6,2.7a24.14,24.14,0,0,1-15-10.46,4.65,4.65,0,0,1,.74-5.9c1.41-1.47,3.22-.27,4.64.63a96.33,96.33,0,0,1,10.57,7.63C102.17,197,102.64,198.89,103.12,200.94Z"
        transform="translate(-14.05 -83.78)" />
    <path class="cls-1"
        d="M72.85,204.22a8.23,8.23,0,0,1,1.64.52c4.88,2.67,10,5,14.46,8.31,1.55,1.15,3.36,2.41,2.32,5-1.14,2.83-2.31,3.45-5.08,2.1-4.09-2-8.32-3.75-12.06-6.4a8.17,8.17,0,0,1-3.81-6.56A2.64,2.64,0,0,1,72.85,204.22Z"
        transform="translate(-14.05 -83.78)" />
    <path class="cls-1"
        d="M341.21,151c-0.15,0-.75-0.12-1.33-0.27-3.81-1-4-1.28-2.44-4.78,1.92-4.22,3.57-8.56,5.82-12.64a2.92,2.92,0,0,1,3.42-1.69c4,0.61,5.49,3.24,4,6.88-1.22,3-2.46,6-3.67,9C346,149.88,344.34,151.21,341.21,151Z"
        transform="translate(-14.05 -83.78)" />
    <path class="cls-1"
        d="M421.36,236.88a22.83,22.83,0,0,1-2.47-.76c-1-.4-2.21-0.53-2.41-2-0.23-1.64,1.07-2,2.06-2.61,4.72-2.92,9.4-5.9,14.38-8.35,2-1,7.29.67,8.29,2.57a1.49,1.49,0,0,1-.44,2.15c-6.08,3.07-11.81,6.88-18.38,9A5.27,5.27,0,0,1,421.36,236.88Z"
        transform="translate(-14.05 -83.78)" />
    <path class="cls-1"
        d="M53,292.06c-2.62,0-5.25.12-7.86,0s-4.54-1.38-4.95-4c-0.29-1.87,2.5-4.08,5.17-4.15,4-.11,8.08-0.21,12.1,0s6.11,2.9,5.41,6.08c-0.31,1.4-.85,2.43-2.61,2.23a32.47,32.47,0,0,0-3.63,0H53v-0.08Z"
        transform="translate(-14.05 -83.78)" />
    <path class="cls-1"
        d="M411.24,219.28a3.42,3.42,0,0,1-3.48-2.39,3,3,0,0,1,1.24-3.93c4.8-3.16,9.67-6.21,14.74-8.92,2.64-1.41,4.37.58,6.35,1.55,0.69,0.34.34,1.07-.08,1.55a42.33,42.33,0,0,1-18.17,12.1A2.51,2.51,0,0,1,411.24,219.28Z"
        transform="translate(-14.05 -83.78)" />
    <path class="cls-1"
        d="M382.14,156.62c2.84-.7,3.42.67,3.28,3.09-0.22,3.82-6.1,12-9.74,13.22a7,7,0,0,1-7.56-3.14c-0.55-1.14.22-1.7,0.8-2.35,2.65-2.92,5.35-5.8,8-8.74C378.35,157.09,380,156,382.14,156.62Z"
        transform="translate(-14.05 -83.78)" />
    <path class="cls-1"
        d="M443.18,242.19c1.64-.1,2.93.83,4.35,1.31,1.22,0.41,1.27,1,.62,2a13.19,13.19,0,0,1-5.27,4.85c-3.26,1.6-6.57,3.12-9.76,4.85-3,1.62-4.3-.68-5.72-2.35s-0.45-3.75,1.05-4.72A42.87,42.87,0,0,1,443.18,242.19Z"
        transform="translate(-14.05 -83.78)" />
    <path class="cls-1"
        d="M205.66,107c1.63,0.91,3.85,1.14,4.8,3.23A60.35,60.35,0,0,1,214.25,123c0.45,2.14-1.56,3.95-3,5.27-1.32,1.17-2.42-.81-3.54-1.48-1.66-1-2.31-2.78-2.77-4.55-0.83-3.21-1.59-6.45-2.33-9.68C202.26,111.14,204.5,107.1,205.66,107Z"
        transform="translate(-14.05 -83.78)" />
    <path class="cls-1"
        d="M233.51,120.24c0.37,1.55-.89,3.05-2.61,4.31-1.15.84-2.25,0.4-3.39-.16a3.58,3.58,0,0,1-1.68-2.37c-1.74-4.66-2.13-9.61-3.08-14.43-0.43-2.19,1.54-3.23,3.2-3.78a3.26,3.26,0,0,1,4.4,2.13A62,62,0,0,1,233.51,120.24Z"
        transform="translate(-14.05 -83.78)" />
    <path class="cls-1"
        d="M323.32,140.64c-4.35-.11-5.29-1.61-3.79-5.32s2.79-7.37,4.32-11c1.8-4.24,5.12-4.68,8.18-1.25,0.84,0.94.57,1.86,0.2,2.82-1.44,3.77-2.88,7.54-4.38,11.28A5,5,0,0,1,323.32,140.64Z"
        transform="translate(-14.05 -83.78)" />
    <path class="cls-1"
        d="M401.71,202.09c-1-.49-3.18.13-3.84-1.59a5.21,5.21,0,0,1,1-5.15,39.24,39.24,0,0,1,9.84-8.4,5,5,0,0,1,5.2,0c3.18,1.78,3.33,3.48.6,5.75-3.33,2.76-6.64,5.56-10,8.34A3.2,3.2,0,0,1,401.71,202.09Z"
        transform="translate(-14.05 -83.78)" />
    <path class="cls-1"
        d="M110.65,188.15a5.26,5.26,0,0,1-3.07-1.34A103.64,103.64,0,0,1,98.33,178c-1.59-1.69-1.66-4.83-.11-6.32,1.86-1.79,3.54-1.21,5.26.43,3.3,3.14,6.71,6.15,10.09,9.2a2.87,2.87,0,0,1,.83,3.8C113.56,186.68,112.69,188.23,110.65,188.15Z"
        transform="translate(-14.05 -83.78)" />
    <path class="cls-1"
        d="M144,157a4.44,4.44,0,0,1-2.25,4.13c-1.65.89-2.86-.07-4-1.22a38,38,0,0,1-8.69-13,3.14,3.14,0,0,1,1.1-4c1.49-1.11,3.17-1.26,4.46,0a48.54,48.54,0,0,1,9.24,13A3.11,3.11,0,0,1,144,157Z"
        transform="translate(-14.05 -83.78)" />
    <path class="cls-1"
        d="M441.08,285c-2.12.22-3.15-1.08-3.57-3.11s0.05-3.82,2.09-4.46A66.31,66.31,0,0,1,454,274.24c3-.25,4.87,2.28,4.45,5.18a1.91,1.91,0,0,1-1.09,1.65C456.25,281.62,442.48,285,441.08,285Z"
        transform="translate(-14.05 -83.78)" />
    <path class="cls-1"
        d="M397.11,170.62c2.08,0,4.4.2,5.34,1.77s-0.86,3.13-1.93,4.32c-2.74,3.09-5.6,6.1-8.6,8.92a4.35,4.35,0,0,1-6.48-.26c-1.95-2.15-.81-3.82.77-5.49,2.36-2.49,4.66-5,7-7.53A4.7,4.7,0,0,1,397.11,170.62Z"
        transform="translate(-14.05 -83.78)" />
    <path class="cls-1"
        d="M274.7,107.16c-0.62,4.34-1.09,8.84-1.35,13.38-0.15,2.52-2.87,4.14-5.39,3.56s-3.22-2.23-2.65-4.8c0.74-3.35.17-6.84,0.86-10.24a7.91,7.91,0,0,1,2.83-4.83c1.23-1,2.65-1.71,4.19-.93S274.69,105.56,274.7,107.16Z"
        transform="translate(-14.05 -83.78)" />
    <path class="cls-1"
        d="M58.71,274.14c-3.38-.5-6.77-0.94-10.14-1.51-2.45-.42-6-3.29-5.91-4.55s4.84-3.37,7.12-3.13c3.6,0.38,7.16,1.07,10.79,1.25,3.25,0.17,4.58,1.88,4.3,4.9-0.21,2.29-2,3.27-5.24,2.93-0.3,0-.6,0-0.91-0.06Z"
        transform="translate(-14.05 -83.78)" />
    <path class="cls-1"
        d="M254.56,114c0.84,3.69-.6,6.58-4,8.73-1,.67-1.54.91-2.41-0.18a7.26,7.26,0,0,1-2-4.87c0.09-3.73.06-7.46,0.05-11.19,0-2.45,1.2-4.32,3.53-4.51s3.85,1.64,4.22,4A30.88,30.88,0,0,1,254.56,114Z"
        transform="translate(-14.05 -83.78)" />
    <path class="cls-1"
        d="M293.53,111.94c-0.68,3.41-1.2,7.19-2.24,10.89-1,3.5-3.93,4.49-6.68,5.5-1.53.56-2.63-.6-2.14-2.5,1.35-5.26,2.63-10.54,4.08-15.78,0.54-2,1.86-3.73,4.1-3.17S293.77,109.29,293.53,111.94Z"
        transform="translate(-14.05 -83.78)" />
    <path class="cls-1"
        d="M162.13,146.14c0.09,2.44-2.64,5.37-4.78,5.48-1.08.06-1.37-.78-1.75-1.43-2.21-3.75-4.29-7.57-6.56-11.29-1.75-2.86.11-5.06,1.23-7.32a1.55,1.55,0,0,1,2.61,0c3.23,4.4,6.75,8.62,9,13.66A4.63,4.63,0,0,1,162.13,146.14Z"
        transform="translate(-14.05 -83.78)" />
    <path class="cls-1"
        d="M305.39,132.29c-1.9.15-3.84-.37-3.26-2.87,1.18-5.07,2.27-10.25,5.52-14.55a6.5,6.5,0,0,1,2.82-2.22c2.18-.85,3.89,0,3.71,2.3a43.34,43.34,0,0,1-4.65,15.52C308.84,131.89,307.16,132.25,305.39,132.29Z"
        transform="translate(-14.05 -83.78)" />
    <path class="cls-1"
        d="M449.28,258.85c3.88-.24,5,1.61,5.88,3.8,0.5,1.27-.42,1.62-1.27,2-4.13,1.67-8.3,3.23-12.38,5-3,1.29-5-.47-7.28-1.74-0.93-.52-0.5-1.17-0.13-1.79,1.12-1.84,2.31-3.53,4.59-4.15C442.58,260.88,446.44,259.68,449.28,258.85Z"
        transform="translate(-14.05 -83.78)" />
    <path class="cls-1"
        d="M179.35,136.43a35.61,35.61,0,0,1-1,3.51,2.94,2.94,0,0,1-2.74,2c-1.33,0-2-.87-2.46-1.92-1.74-3.86-3.6-7.68-5.12-11.63-1.44-3.74.25-6,4.26-6.34a1.3,1.3,0,0,1,1.53.62C175.95,127.16,178.45,131.45,179.35,136.43Z"
        transform="translate(-14.05 -83.78)" />
    <path class="cls-1"
        d="M227.23,127.16c0.31,1.84-.57,2.28-1.86,2.05-0.76-.13-2.52-0.51-2-0.9,1.32-.91.84-3.34,2.82-3.26C227.76,125.12,226.92,126.64,227.23,127.16Z"
        transform="translate(-14.05 -83.78)" />
    <path class="cls-1"
        d="M165,245.37c-5.28,1.13-10.38,2.18-15.45,3.34-2.05.47-3.93,0.28-5.29-1.32s-0.75-3.46.07-5.15c2.58-5.34,6.65-9.33,11.36-12.81,7.74-5.71,16.52-9.41,25.21-13.29,3.66-1.63,3.71-1.59,2-5.14a6.21,6.21,0,0,1,.78-7.08c5.26-6.6,11-7.94,16.64-3.19,1.6,1.34,2.68.64,4-.27,1.72-1.19,3.28-2.82,5.67-2.52,1.24,0.16,2.5.42,2.87,1.82a2.62,2.62,0,0,1-1.31,3.12c-8.79,4.68-10.72,13.16-12.25,21.88a10.26,10.26,0,0,1-.25,1.8c-0.37,1-.52,2.47-2,2.33s-1.29-1.6-1.45-2.65c-0.28-1.8-.48-3.61-0.72-5.41-0.08-.6-0.2-1.33-0.9-1.4s-0.8.75-1,1.28a49,49,0,0,0-2.85,13c-0.21,1.77-.62,4.07-2.41,4s-3.13-2-3.13-4.2a4.82,4.82,0,0,0-.87-3.2c-1.63,2-3.17,4-4.73,5.88-0.79,1-.14,1.67.35,2.44,6.21,9.74,8.84,20.54,9.46,31.92,0.23,4.2-.77,8.24-1.95,12.21-0.49,1.65-1.24,3.45-3.24,3.65s-3.12-1.22-4.08-2.72q-5.33-8.31-10.63-16.65c-1.8-2.82-2.19-2.87-3.86.16s-2.87,6.46-5.12,9.28a35.7,35.7,0,0,1-15.14,10.81c-3.48,1.38-7,2.53-10.59,3.75-1.74.6-3.6,1.29-5.13-.23s-1.34-3.61-.79-5.46a38.36,38.36,0,0,1,5-10.35c4.48-6.69,10.7-11.54,17.13-16.18,4.27-3.08,8.63-6.05,12.16-10A8.94,8.94,0,0,0,165,245.37ZM139.8,280.78c8-3.4,17.44-13.72,18.28-20.29-2.16,1.66-4.22,3.09-6.11,4.73-5,4.35-10.06,8.75-12.48,15.25l-0.15.48Zm34.69-30.48c0.4,7.47,2.1,14,5.95,20,0.44,0.67.84,1.58,1.82,1.2s0.55-1.36.38-2.1c-1.6-6.88-3.17-13.76-4.89-20.61-0.37-1.47-.13-4.14-1.66-4.09-2.09.06-.8,2.66-1.32,4.05A6.48,6.48,0,0,0,174.49,250.31Zm-16.14-14.75c7.6,0,12.79-4.42,17.72-9.31,0.43-.43,1-0.95.57-1.57-0.58-.92-1.29-0.21-1.81.13Q166.57,230.15,158.35,235.56ZM196,203.86c-0.62-.85-1.15-2.43-2.63-1.26-1.82,1.44-3.37,3.21-5,4.82a1.32,1.32,0,0,0,.11,2.11c0.74,0.78,1.26.07,1.78-.36q2.48-2,4.94-4A1.49,1.49,0,0,0,196,203.86Z"
        transform="translate(-14.05 -83.78)" />
    <path class="cls-1"
        d="M333,244.9c1.62,4,4.79,6.62,8.15,9.15,5.65,4.26,11.82,7.85,16.91,12.85,4.4,4.33,7.43,9.58,10.06,15.08a9.41,9.41,0,0,1,.56,1.73c0.56,2.17.46,4.42-1.16,6s-3.79,1.09-5.5.38c-7.1-3-14.29-5.81-20.54-10.4-3.93-2.89-5.75-7.5-8.43-11.39-1-1.41-1.73-3-2.86-4.9-2.47,3.88-4.76,7.51-7.07,11.12-1.69,2.64-3.39,5.29-5.13,7.9-0.9,1.35-1.92,3-3.75,2.55a5.28,5.28,0,0,1-4.21-4.33c-1.12-10.92-1.7-21.82,2.79-32.29,1.59-3.72,3-7.52,4.45-11.3,0.59-1.52-1.57-6.08-3.1-6.57-1.2-.38-1,0.59-1.12,1.23-0.33,2.43-1.29,5.29-3.66,5.24-2,0-2.27-3.14-2.64-5.24-0.62-3.48-1.36-6.94-2-10.41-0.21-1.09-.35-2.22-1.77-3-1.13,2.55-.85,5.3-1.45,7.85-0.19.82,0.24,2-1.12,2.13s-1.58-1.05-1.81-2c-0.72-2.94-1.68-5.8-2.13-8.83a19.18,19.18,0,0,0-7.78-13.25c-2-1.47-3.7-3.22-3.81-5.83,0-.77,5.9-0.45,7.45.9,2.12,1.84,3.51,1.59,5.56-.21,2.64-2.32,5.94-2.32,9.18-1.08a16.82,16.82,0,0,1,7.39,6.13,5.09,5.09,0,0,1-.56,7.17c-1.62,1.6-.92,2.12.66,2.92,8,4,16,7.78,23.68,12.41,6.22,3.77,10.65,9.31,14.83,15,2.14,2.93.49,5.84-3.19,6.22-4.47.46-8.58-1.1-12.75-2.3-1.26-.36-2.54-0.64-3.82-1-0.17-.19-0.36-0.39-0.56-0.07A1.21,1.21,0,0,0,333,244.9Zm6.82,16.3-0.21-.28a0.32,0.32,0,0,0,0,.16,0.78,0.78,0,0,0,.2.11c2.17,7.93,13.74,18.57,18.21,18.36a28.83,28.83,0,0,0-4.39-6.92C349.77,268,345.56,263.64,339.83,261.2Zm-17-11.64c-0.05-.88,0-2.31-0.26-3.7-0.13-.85-0.3-2-1.48-2s-1,1.21-1.12,1.89q-2.63,11.21-5.1,22.46c-0.15.66-.93,1.63,0.37,2,1,0.3,1.4-.53,1.83-1.23A37,37,0,0,0,322.83,249.56Zm-1.52-26.15a2.17,2.17,0,0,0-.72.54,1.15,1.15,0,0,0,.51,1.3c4.5,4.59,9.31,8.71,15.7,10.46,0.73,0.2,1.69,1,2.21.08,0.68-1.17-.65-1.5-1.33-2q-7.34-4.84-14.73-9.6A16.78,16.78,0,0,0,321.31,223.41Zm-18.64-22.57c-0.32.53-.61,1.05-0.93,1.56A1.17,1.17,0,0,0,302,204q2.62,2.3,5.29,4.53a1.24,1.24,0,0,0,1.57-1.92c-1.58-1.57-3.15-3.14-4.74-4.69C303.78,201.67,303.44,201.45,302.66,200.84Z"
        transform="translate(-14.05 -83.78)" />
    <path class="cls-1"
        d="M249.39,172.33c9.78,0.34,19.74,4,27,13,4.89,6.11,3.51,12.14-3.54,15.51-17.55,8.38-35,8.09-51.93-1.82-6.27-3.67-6.64-7.51-2-13.15C226.37,176.77,236.07,172.42,249.39,172.33Zm16.83,11.33c-1.74,4-3.31,7.36-6.59,9.27-8,4.66-19.12,4.68-25.34-4.51-2.9-4.28-3.1-4.15-6.86-.66-4.58,4.25-4.62,4.33,1.06,7.15,9.27,4.61,19.08,5.63,29.21,3.91,4.72-.8,9.27-2.15,13.09-5.23,0.93-.75,2.07-1.5.92-3C270,188.45,268.24,186.24,266.22,183.65Zm-15.14-1.59c-1,1-3.14,1.14-2.95,2.9a3.38,3.38,0,0,0,3.29,3c1.63-.09,4-1.24,3.91-2.6C255.26,183.77,253,182.89,251.09,182.06Z"
        transform="translate(-14.05 -83.78)" />
    <path class="cls-1"
        d="M209.62,212c-0.88-.5-2.78.45-2.68-1.05s2-.82,3.06-0.89c0.86-.06,2.51-0.47,2.41.94S210.61,211.69,209.62,212Z"
        transform="translate(-14.05 -83.78)" />
    <path class="cls-1"
        d="M248.89,250.93a4.58,4.58,0,0,1,3.92,7.13,62.27,62.27,0,0,1-3.93,5.36c-0.81,1.1-1.49.69-2.16-.14-0.82-1-1.63-2.06-2.48-3.05-1.57-1.82-2.34-3.78-1.18-6.1A6.94,6.94,0,0,1,248.89,250.93Z"
        transform="translate(-14.05 -83.78)" />
    <path class="cls-2" d="M139.8,280.78l-0.46.17,0.15-.48Z" transform="translate(-14.05 -83.78)" />
    <path class="cls-2" d="M339.83,261.2a0.78,0.78,0,0,1-.2-0.11,0.32,0.32,0,0,1,0-.16l0.21,0.28h0Z"
        transform="translate(-14.05 -83.78)" />
    <path class="cls-2" d="M333,244.9a1.21,1.21,0,0,1-.27-0.37c0.21-.32.39-0.12,0.56,0.07Z"
        transform="translate(-14.05 -83.78)" />
</svg>